<svg width="70" height="70" viewBox="0 0 70 70" fill="none" xmlns="http://www.w3.org/2000/svg">
<g clip-path="url(#clip0_1164_424)">
<path d="M1.03678 10.6764C1.90506 11.4818 2.81344 12.2872 3.65764 13.1377C5.48247 14.9868 7.25917 16.8876 9.09042 18.7319C9.72118 19.3635 10.4071 19.9371 11.1399 20.4458C12.1479 21.1465 13.2601 21.1787 14.2921 20.5102C15.0793 19.9978 15.8204 19.4173 16.5069 18.7754C17.4297 17.9152 18.2932 16.989 19.1551 16.0644C19.903 15.259 20.4679 14.3619 20.3652 13.1892C20.2898 12.3259 19.8693 11.6203 19.2899 11.0211C17.5084 9.17839 15.6996 7.3614 13.9117 5.5251C12.647 4.22681 11.3984 2.91239 10.1449 1.60605C10.0807 1.53839 10.0261 1.4611 9.89932 1.30646C10.8238 1.00524 11.6808 0.649206 12.5732 0.446247C17.8535 -0.758623 22.5704 0.507463 26.7096 3.91589C29.759 6.42228 31.5148 9.73408 32.1792 13.6064C32.3895 14.8338 32.3927 16.1 32.4248 17.3499C32.4441 18.1247 32.4858 18.885 32.8501 19.5728C33.0524 19.9631 33.3103 20.3218 33.6157 20.6375C42.4622 29.5666 51.314 38.4888 60.1712 47.4039C62.0533 49.3004 63.9365 51.1947 65.8207 53.0868C67.2362 54.5156 68.2104 56.1812 68.6117 58.1802C69.5827 63.0125 66.5862 67.9448 61.8709 69.2543C60.8581 69.5362 59.8358 69.7553 58.7829 69.7376C56.857 69.7182 55.1654 69.0046 53.6583 67.8432C53.0367 67.3626 52.447 66.8417 51.8929 66.284C41.5923 55.962 31.2976 45.6343 21.0088 35.3005C19.9977 34.2857 18.9095 33.3966 17.5341 32.9246C16.6577 32.6218 15.7494 32.5364 14.8346 32.4881C9.46117 32.2078 5.45198 29.5983 2.57751 25.1477C0.71737 22.2644 -0.113987 19.0637 0.0176192 15.6279C0.0761813 13.9315 0.420791 12.2573 1.03678 10.6764ZM59.5983 65.1677C62.0924 65.1774 64.3826 62.853 64.4003 60.2951C64.4195 57.705 62.1983 55.5304 59.518 55.5127C58.2789 55.4946 57.083 55.9698 56.1921 56.8344C55.3012 57.6989 54.7878 58.8824 54.7641 60.1259C54.7096 62.9368 57.1395 65.1919 59.5983 65.1677Z" fill="#EABC67"/>
<path d="M41.4415 23.3967L38.636 20.689C38.9923 20.5199 39.3037 20.3668 39.6247 20.2235C40.1926 19.9778 40.7077 19.6238 41.1413 19.1813C46.2269 14.0976 51.3162 9.01774 56.4092 3.94162C57.5504 2.80118 58.8295 1.90074 60.4136 1.51254C64.3249 0.546063 68.0997 2.61913 69.4254 6.44636C69.9294 7.89607 70.1765 9.37803 69.8571 10.9115C69.6169 12.064 69.0344 13.1164 68.1864 13.9301C62.5958 19.4347 57.0074 24.9414 51.4211 30.4503C50.8465 31.0173 50.2671 31.5779 49.7407 32.0949L47.5611 30.0622C47.6767 29.9301 47.7393 29.8479 47.8115 29.7754C53.4545 24.1538 59.0981 18.5327 64.7422 12.9121C64.9524 12.7011 65.1755 12.5029 65.4034 12.3113C66.0694 11.7491 66.2203 11.0227 66.0646 10.2092C66.0363 10.1045 65.9858 10.007 65.9165 9.92363C65.8473 9.84024 65.761 9.77287 65.6634 9.72598C65.084 9.50208 64.4918 9.50367 63.9718 9.90798C63.6608 10.1476 63.3654 10.4069 63.0875 10.6844C57.8778 15.914 52.6708 21.1459 47.4664 26.3799C46.8967 26.9533 46.2884 27.4913 45.6721 28.0696L43.2872 25.5165C43.9292 24.8206 44.515 24.1199 45.1601 23.4724C50.2029 18.3974 55.2515 13.3277 60.3061 8.26337C60.6351 7.94121 60.9737 7.61903 61.2899 7.27433C61.7473 6.79109 61.7569 6.19189 61.5884 5.5959C61.452 5.11266 60.7234 4.83397 60.1344 5.08686C59.7225 5.26605 59.347 5.51996 59.0269 5.83586C53.9981 10.8594 48.9789 15.8921 43.9693 20.9339C43.1459 21.7554 42.3082 22.5526 41.4415 23.3967Z" fill="#EABC67"/>
<path d="M24.3166 43.4138L28.1862 47.0075C28.0915 47.109 28.0081 47.204 27.9182 47.2926C25.0453 50.1158 22.1714 52.939 19.2963 55.7621C18.1199 56.9155 17.4362 58.3394 17.0189 59.9051C16.6209 61.3951 15.8345 62.6096 14.5505 63.4633C11.5493 65.4607 8.55122 67.4597 5.52267 69.4136C4.11352 70.3237 3.51167 70.1883 2.43635 68.9045C2.00141 68.3842 1.59533 67.8398 1.16681 67.2937C1.19687 67.228 1.23064 67.164 1.26794 67.1021C3.74438 63.3683 6.23046 59.6425 8.69406 55.9006C9.30876 54.968 10.2171 54.5637 11.2363 54.4397C13.2649 54.1916 14.817 53.143 16.1956 51.7207C18.8481 48.9802 21.5101 46.2488 24.1819 43.5266C24.214 43.4944 24.254 43.467 24.3166 43.4138Z" fill="#EABC67"/>
</g>
<defs>
<clipPath id="clip0_1164_424">
<rect width="70" height="70" fill="white"/>
</clipPath>
</defs>
</svg>
