<svg width="70" height="70" viewBox="0 0 70 70" fill="none" xmlns="http://www.w3.org/2000/svg">
<g clip-path="url(#clip0_1164_440)">
<path d="M47.7861 59.5418C54.476 64.6559 54.4759 64.6559 60.6776 58.4506C60.9086 58.2205 61.1527 57.997 61.3836 57.7604C64.181 54.8418 64.2404 52.7252 61.4958 49.8394C60.2687 48.5248 59.3714 47.5979 60.3016 45.409C61.2319 43.22 62.5118 42.8979 64.5307 42.9177C67.7898 42.9177 69.6833 41.34 69.8747 38.3952C70.0501 35.9881 70.0501 33.5715 69.8747 31.1644C69.5646 27.4702 62.492 24.0849 59.7144 26.4448C57.0754 28.6731 54.4364 30.6912 54.5815 35.2136C54.9642 44.7779 47.6145 52.6003 37.639 54.3751C29.2733 55.8607 19.6277 50.2207 16.5269 42.0368C13.1291 33.0247 16.3488 23.1383 24.3846 18.1754C31.6419 13.6858 38.9387 14.2314 46.7436 18.721C48.3798 16.8805 50.0424 15.0202 51.705 13.1271C53.3676 11.2339 55.0566 9.18304 56.6994 7.25704C54.8653 5.8832 52.4967 5.79117 50.3723 7.85522C48.8152 9.3671 47.6607 10.4846 45.0942 9.36709C42.6267 8.28248 43.115 6.61942 43.0292 4.85117C42.884 1.56448 41.525 0.170917 38.1074 0.0394495C36.0226 -0.0394312 33.9312 -0.0262844 31.8464 0.0394495C28.3101 0.170917 26.918 1.54476 26.951 5.16012C26.951 7.18473 26.6937 8.49282 24.4967 9.46568C22.1876 10.4846 21.1188 9.41969 19.7333 8.10501C17.1998 5.70572 14.7587 5.75174 12.2253 8.10501C11.1037 9.15675 10.0349 10.2479 8.92649 11.3391C5.50236 14.7901 5.3968 16.6767 8.84072 20.2592C10.1206 21.5739 10.2856 22.573 9.50048 24.2361C8.76155 25.7874 8.12819 26.6288 6.2017 26.6156C1.39868 26.6156 0.0461771 28.1078 0.0065918 32.9524C0.0065918 34.1619 0.0065918 35.3648 0.0065918 36.5678C0.0065918 41.3729 1.37891 42.9637 6.22151 42.8191C8.74178 42.7468 9.26293 44.2784 9.63239 45.8954C9.75046 46.454 9.75285 47.0306 9.6394 47.5901C9.52596 48.1496 9.29907 48.6801 8.97264 49.1492C5.5815 52.9618 5.52217 54.6446 9.10464 58.2797C9.87655 59.0553 10.6616 59.8178 11.4467 60.5869C15.2139 64.2878 16.7248 64.4455 20.4788 60.6855C22.1084 59.0619 23.4543 59.5089 24.754 60.4555C25.7142 61.2632 26.4445 62.3083 26.8718 63.4858C27.459 64.9451 27.2808 66.8448 28.1913 68.0214C30.0584 70.5456 39.5589 70.5982 41.7163 68.2383C42.376 67.4956 43.1018 66.2663 42.9764 65.3592C42.3827 61.5992 44.3092 60.0216 47.7861 59.5418ZM33.8784 35.6212C32.3082 32.9918 31.0019 30.7306 29.6626 28.5088C27.9473 25.6691 25.4929 24.8014 23.1178 26.1621C20.9076 27.4176 20.4788 29.8432 22.0952 32.7355C23.8369 35.8907 25.7371 38.9671 27.5052 42.1157C30.4213 47.3087 33.6805 47.8346 37.8898 43.6407C46.1191 35.4503 54.3198 27.2379 62.492 19.0037C65.032 16.4598 65.2827 13.745 63.2375 11.8847C61.1922 10.0244 58.9096 10.386 56.3827 12.9233C48.9671 20.3709 41.5909 27.8383 33.8784 35.6212Z" fill="#EABC67"/>
<path d="M47.7861 59.5418C44.3092 60.0217 42.3827 61.5992 42.9237 65.3987C43.0491 66.2992 42.3497 67.535 41.6635 68.2778C39.5061 70.6377 30.0057 70.5851 28.1386 68.0609C27.2611 66.8843 27.4392 64.9846 26.8191 63.5253C26.3918 62.3477 25.6615 61.3027 24.7013 60.4949C23.3818 59.5484 22.0623 59.1014 20.4261 60.725C16.6457 64.485 15.148 64.3272 11.394 60.6264C10.6089 59.8573 9.82374 59.0948 9.05182 58.3191C5.46935 54.684 5.52876 53.0013 8.91991 49.1887C9.24633 48.7196 9.47322 48.1891 9.58667 47.6296C9.70011 47.0701 9.69772 46.4934 9.57966 45.9349C9.2102 44.3178 8.68896 42.7862 6.1687 42.8585C1.3261 43.0031 -0.0263499 41.4124 -0.0461426 36.6072C-0.0461426 35.4043 -0.0461426 34.2014 -0.0461426 32.9919C-0.00655728 28.1473 1.34595 26.6288 6.14897 26.6551C8.08865 26.6551 8.72201 25.8269 9.44774 24.2756C10.2394 22.6125 10.1075 21.6462 8.78799 20.2987C5.34407 16.7162 5.44963 14.8296 8.87376 11.3786C9.95576 10.2874 11.0246 9.19622 12.1725 8.14447C14.706 5.77148 17.1471 5.72547 19.6805 8.14447C21.066 9.45915 22.1348 10.524 24.444 9.50515C26.6409 8.53229 26.9114 7.22419 26.8982 5.19959C26.8982 1.58423 28.2574 0.210384 31.7936 0.0789162C33.8785 0.0066089 35.9699 -0.00653787 38.0547 0.0789162C41.4722 0.210384 42.8313 1.57765 42.9765 4.89064C43.0556 6.65888 42.574 8.32195 45.0415 9.40655C47.6211 10.5438 48.7757 9.40656 50.3195 7.89468C52.4439 5.83064 54.8124 5.92266 56.6466 7.2965C55.0038 9.22908 53.3478 11.2405 51.6522 13.1665C49.9567 15.0925 48.3535 16.9199 46.6909 18.7605C38.886 14.2446 31.5891 13.7253 24.3318 18.2149C16.296 23.1778 13.0763 33.0642 16.4741 42.0763C19.5551 50.2602 29.2007 55.8804 37.5862 54.4145C47.5617 52.6397 54.9114 44.8174 54.5288 35.2531C54.3506 30.7306 57.0425 28.7126 59.6617 26.4842C62.4393 24.1244 69.5118 27.5097 69.8219 31.2039C69.9974 33.611 69.9974 36.0276 69.8219 38.4346C69.6306 41.3795 67.737 42.99 64.4778 42.9571C62.459 42.9571 61.1791 43.2069 60.2489 45.4484C59.3186 47.69 60.2488 48.5905 61.443 49.8789C64.1876 52.7646 64.1282 54.8812 61.3309 57.7998C61.1 58.0365 60.8558 58.26 60.6249 58.49C54.476 64.6559 54.476 64.6559 47.7861 59.5418Z" fill="#EABC67"/>
<path d="M33.8784 35.6212C41.5909 27.8449 48.967 20.3776 56.3827 12.9496C58.9095 10.4123 61.278 10.1033 63.2375 11.911C65.1969 13.7187 65.032 16.5124 62.4919 19.03C54.3066 27.2599 46.1059 35.4722 37.8897 43.6671C33.6805 47.8609 30.4213 47.335 27.5052 42.142C25.737 38.9934 23.8369 35.917 22.0952 32.7618C20.4788 29.8432 20.9076 27.4176 23.1178 26.1884C25.4929 24.8277 27.9472 25.6954 29.6626 28.5351C31.0019 30.7241 32.3082 32.9919 33.8784 35.6212Z" fill="#EABC67"/>
</g>
<defs>
<clipPath id="clip0_1164_440">
<rect width="70" height="70" fill="white"/>
</clipPath>
</defs>
</svg>
