<svg width="73" height="79" viewBox="0 0 73 79" fill="none" xmlns="http://www.w3.org/2000/svg">
<g clip-path="url(#clip0_1164_386)">
<path d="M36.7365 -0.00146484C37.7223 0.291362 38.1269 1.01078 38.1269 1.99203C38.1144 3.41394 38.0671 4.83443 38.0324 6.25634C38.0101 7.11933 36.9075 7.62469 36.2248 7.46701C35.4267 7.28258 34.8483 6.66742 34.8413 5.83117C34.8316 4.39519 34.8691 2.9592 34.9122 1.52322C34.9098 1.25175 34.9864 0.985595 35.1326 0.75799C35.2787 0.530385 35.4879 0.351447 35.734 0.243529C35.8869 0.170323 36.0316 0.0815967 36.1789 -0.00146484H36.7365Z" fill="#EABC67"/>
<path d="M47.9473 63.8504H38.2686C39.582 57.2183 39.5143 50.3817 38.0698 43.7777C38.1931 43.8109 38.3135 43.8542 38.4299 43.9072C41.1342 45.4375 43.5369 44.5858 45.521 42.757C47.38 41.0437 48.6731 38.9235 49.6923 36.6315C50.4014 35.0308 51.0076 33.3837 51.6389 31.7492C51.8836 31.1128 51.8169 31.0044 51.1328 30.9749C49.9676 30.9256 48.7955 30.8482 47.6345 30.9242C46.0244 31.0312 44.4017 31.1579 42.8222 31.4761C40.649 31.9153 38.7274 32.9163 37.2605 34.6676C36.3345 35.7699 35.9215 37.0609 35.8701 38.4814C35.8701 38.6011 35.8562 38.7222 35.8437 38.8418C35.8437 38.8658 35.8214 38.8869 35.7783 38.9629C35.6518 38.8418 35.5253 38.7362 35.4168 38.6151C33.3312 36.2584 30.6184 35.2504 27.6096 34.9224C26.1343 34.7605 24.6493 34.6732 23.1602 34.6254C22.3996 34.6014 21.6308 34.7394 20.8063 34.8084C21.1664 35.8797 21.4876 36.8821 21.8408 37.8718C22.7988 40.5622 23.9876 43.1315 25.7993 45.3558C26.8226 46.613 27.9976 47.6858 29.5451 48.2573C32.0479 49.1823 34.4894 47.9377 35.7602 46.0231C35.9036 45.7753 36.0305 45.518 36.1399 45.2531H36.2649C36.3678 45.6022 36.4958 45.9443 36.5695 46.299C37.1743 49.2343 37.3147 52.2119 37.2494 55.1965C37.2021 57.3336 37.0631 59.4622 36.6544 61.5641C36.5292 62.2061 36.3275 62.8311 36.1774 63.4717C36.1037 63.7828 35.9563 63.8855 35.6212 63.8799C33.0864 63.8391 30.5518 63.818 28.017 63.7969C26.9297 63.787 25.8438 63.7969 24.7328 63.7969C24.6258 63.0634 24.559 62.3708 24.42 61.6922C24.014 59.7001 23.152 57.8911 22.1815 56.1285C21.1178 54.1998 19.8177 52.4414 18.4982 50.6844C15.9732 47.3141 14.3172 43.5045 13.9279 39.3064C13.2021 31.4944 15.7131 24.848 21.5543 19.5969C24.7004 16.7531 28.5939 14.8947 32.7625 14.2471C34.178 14.0177 35.6448 14.0303 37.0867 14.0514C39.9065 14.0923 42.6484 14.5879 45.2332 15.7915C52.0977 18.9915 56.6348 24.2385 58.2463 31.7436C59.7229 38.6096 58.331 44.9645 54.093 50.6084C52.355 52.9201 50.7268 55.2993 49.4754 57.9291C48.3436 60.2957 48.1156 61.2036 47.9473 63.8504Z" fill="#EABC67"/>
<path d="M25.0012 74.6457C25.9564 74.3726 46.5124 74.3177 47.7165 74.5725C47.7188 74.6233 47.7131 74.6741 47.6998 74.7231C46.8989 76.5195 45.7533 78.023 43.8554 78.6734C43.0726 78.9409 42.1869 78.9958 41.3526 78.9987C37.8251 79.0113 34.2975 78.9564 30.7714 78.948C28.106 78.948 26.4264 77.4543 25.2195 75.2327C25.1322 75.0429 25.0592 74.8467 25.0012 74.6457Z" fill="#EABC67"/>
<path d="M24.7134 70.8993C24.6676 69.6689 24.6258 68.5286 24.5744 67.353H47.9335V70.8993H24.7134Z" fill="#EABC67"/>
<path d="M53.94 4.61768C54.3335 4.81196 54.766 4.95555 55.1122 5.216C55.3395 5.38511 55.5027 5.628 55.5746 5.90417C55.6464 6.18034 55.6226 6.47306 55.5071 6.7336C54.8981 8.26475 54.1041 9.71366 53.1434 11.0472C52.7096 11.6413 51.7947 11.7623 51.0049 11.371C50.3486 11.0458 50.0886 10.4799 50.2888 9.69429C50.3778 9.3152 50.5182 8.95037 50.7059 8.61024C51.3344 7.52481 51.9949 6.45485 52.6525 5.38772C52.7841 5.17445 52.9694 5.00055 53.1893 4.88377C53.4092 4.76699 53.6558 4.71158 53.9039 4.72326L53.94 4.61768Z" fill="#EABC67"/>
<path d="M63.0849 22.9882C62.348 22.9699 61.7306 22.5391 61.5151 21.9324C61.2899 21.3003 61.4345 20.7146 62.0073 20.243C63.2371 19.2191 64.6094 18.3847 66.0799 17.7666C66.6555 17.5315 67.2604 17.4738 67.7484 17.9863C68.2364 18.4987 68.4992 19.1337 68.2754 19.8601C68.2018 20.1014 68.0595 20.3154 67.8665 20.4753C66.5453 21.4669 65.1019 22.2795 63.5729 22.8926C63.4876 22.9283 63.3985 22.9538 63.3073 22.9686C63.2337 22.9799 63.1594 22.9865 63.0849 22.9882Z" fill="#EABC67"/>
<path d="M20.9925 11.6046C20.7452 11.6131 20.5005 11.5518 20.2856 11.4275C20.0708 11.3032 19.8942 11.1208 19.7759 10.9007C19.0543 9.69982 18.3493 8.4877 17.6903 7.25163C17.5091 6.89389 17.4229 6.49464 17.44 6.09299C17.4678 5.44117 17.8795 5.00897 18.4913 4.82595C19.1031 4.64294 19.7425 4.63308 20.1763 5.18073C21.2669 6.53568 22.1201 8.06986 22.6987 9.71669C23.0435 10.6979 22.2244 11.6131 20.9925 11.6046Z" fill="#EABC67"/>
<path d="M11.4405 21.2665C11.4238 22.5885 10.6146 23.2376 9.4661 22.9095C8.93141 22.7539 8.41771 22.5321 7.93663 22.2492C7.02174 21.7114 6.12907 21.1314 5.24894 20.5373C4.62046 20.115 4.4758 19.4111 4.79976 18.6494C5.13625 17.8582 5.69528 17.4964 6.4475 17.664C6.87362 17.7545 7.28379 17.9097 7.66412 18.1243C8.71806 18.7409 9.74137 19.4096 10.7828 20.046C10.9953 20.1655 11.17 20.3437 11.2864 20.5597C11.4028 20.7758 11.4563 21.0209 11.4405 21.2665Z" fill="#EABC67"/>
<path d="M69.3029 38.5082C68.4965 38.4701 67.6873 38.4645 66.8836 38.3843C66.5181 38.3382 66.1834 38.1534 65.947 37.8673C65.7107 37.5813 65.5903 37.2151 65.61 36.8427C65.6267 36.1866 66.1578 35.311 67.0073 35.3152C68.5702 35.3152 70.1344 35.2829 71.6958 35.3279C72.6691 35.3561 73.3128 36.6273 72.8387 37.5001C72.6888 37.8022 72.4556 38.0538 72.1674 38.2245C71.8792 38.3951 71.5483 38.4775 71.2147 38.4617C70.5779 38.4617 69.9411 38.4617 69.3043 38.4617L69.3029 38.5082Z" fill="#EABC67"/>
<path d="M3.80561 35.2251C4.5328 35.2575 5.26131 35.2744 5.98711 35.3279C6.35572 35.3449 6.70424 35.5028 6.96231 35.7699C7.22037 36.0369 7.36876 36.3931 7.37753 36.7666C7.39144 37.5733 6.81032 38.4011 6.07061 38.4208C4.48414 38.4616 2.89339 38.4349 1.30692 38.3856C0.750752 38.3673 0.144533 37.7169 0.0263472 37.1622C-0.0918387 36.6075 0.239169 35.7854 0.741112 35.4799C0.90042 35.3849 1.08051 35.3318 1.26524 35.325C2.112 35.3096 2.95881 35.318 3.80697 35.318L3.80561 35.2251Z" fill="#EABC67"/>
<path d="M25.9134 37.8691C26.1112 37.9294 26.3049 38.0028 26.4932 38.0888C29.0104 39.3924 31.272 41.1494 33.1672 43.2738C33.394 43.5344 33.5814 43.8276 33.7234 44.1438C33.7511 44.2306 33.7582 44.3228 33.7439 44.4128C33.7297 44.5029 33.6945 44.5882 33.6414 44.6619C33.5663 44.7449 33.2827 44.7295 33.1603 44.6492C32.9064 44.4785 32.6754 44.275 32.4734 44.0438C30.6144 42.0109 28.5329 40.2695 26.0886 38.9912C25.8483 38.8569 25.6454 38.6632 25.499 38.4281C25.3308 38.1409 25.5074 37.8691 25.9134 37.8691Z" fill="#EABC67"/>
<path d="M38.8276 40.4355C38.9385 40.2107 39.0668 39.9951 39.2113 39.7907C40.2694 38.5039 41.5556 37.465 42.8487 36.4387C43.8605 35.6132 44.9796 34.9326 46.1745 34.4157C46.4043 34.3147 46.6459 34.2442 46.8934 34.2059C46.9595 34.1989 47.0263 34.2081 47.0882 34.2325C47.1502 34.257 47.2053 34.2962 47.2493 34.3467C47.266 34.4133 47.266 34.4832 47.2493 34.5498C47.2325 34.6164 47.1995 34.6777 47.1534 34.7282C46.7765 35.0432 46.3834 35.3379 45.9758 35.6109C44.8829 36.3373 43.7316 36.9878 42.6929 37.786C41.8114 38.4646 41.0564 39.3106 40.2416 40.0779C39.9925 40.3181 39.7312 40.5451 39.4588 40.7579C39.3462 40.8424 39.1404 40.9282 39.0417 40.8789C38.943 40.8297 38.911 40.6227 38.8276 40.4355Z" fill="#EABC67"/>
</g>
<defs>
<clipPath id="clip0_1164_386">
<rect width="73" height="79" fill="white"/>
</clipPath>
</defs>
</svg>
