<svg width="104" height="70" viewBox="0 0 104 70" fill="none" xmlns="http://www.w3.org/2000/svg">
<g clip-path="url(#clip0_1164_408)">
<path d="M-6.00796e-05 45.4877C0.766084 43.5778 1.33341 41.5528 2.33429 39.7779C4.75008 35.5009 8.31677 32.2191 12.1948 29.3189C14.8437 27.3449 17.6441 25.5634 20.6337 23.5203C20.6337 25.5173 20.6712 27.1755 20.5979 28.8287C20.5848 29.1248 20.1545 29.4703 19.8416 29.6743C16.3874 31.9065 13.0962 34.3477 10.1848 37.2807C8.40641 39.0721 6.83008 41.0149 5.67598 43.2916C3.66118 47.2676 4.72237 50.7204 8.61015 52.8672C11.691 54.5698 15.0524 55.2887 18.4756 55.7098C23.4995 56.3283 28.5429 56.2032 33.5636 55.6949C39.4124 55.106 45.2074 54.119 50.8753 52.5316C55.6433 51.1958 60.3673 49.7006 65.1125 48.276L65.137 47.8598L60.4944 45.2146L62.7765 41.1021L74.5132 47.7265L68.195 59.1265L64.1198 56.8235C64.8761 55.4466 65.6048 54.1174 66.4019 52.655C64.0741 53.4462 61.8914 54.2227 59.6875 54.93C52.7488 57.1815 45.6312 58.8266 38.4132 59.847C32.4682 60.6695 26.5136 61.112 20.5132 60.6398C15.6702 60.2598 10.9216 59.4407 6.57412 57.1081C3.27155 55.3347 0.860623 52.7833 0.11567 48.9225C0.10426 48.8649 0.0342037 48.8189 -0.00817871 48.7662L-6.00796e-05 45.4877Z" fill="#EABC67"/>
<path d="M70.3223 58.6658C71.1912 54.9761 73.9705 53.3361 77.1687 51.8375L74.5606 50.6202L75.8957 48.1855L78.5592 49.3042V19.1265C78.2332 19.291 77.9659 19.4209 77.7165 19.5723C69.5171 24.5336 61.3308 29.5196 53.1021 34.4415C51.829 35.2048 52.4923 36.2921 52.3244 37.238C52.1859 38.0227 52.8738 38.0802 53.3302 38.2842C55.2684 39.1528 57.2212 39.9918 59.2751 40.8883L57.9206 43.3558L52.3456 40.9558C52.3456 43.545 52.3211 45.9993 52.3602 48.4553C52.3717 49.1512 52.2153 49.5147 51.4736 49.6282C50.7319 49.7417 49.9804 50.0098 49.105 50.2451V40.8192L25.5224 51.7618L28.1763 53.443C25.8827 53.7555 23.8321 53.9858 22.0961 52.4181C21.8772 52.1856 21.7531 51.8784 21.7487 51.5578C21.7291 44.7277 21.7096 37.9042 21.7487 31.0676C21.7666 27.6673 21.9117 24.2671 21.9525 20.8685C21.9459 19.5493 21.8693 18.2314 21.7228 16.9205C21.6592 16.2724 21.9885 16.0322 22.4628 15.769C31.5588 10.6048 40.648 5.42798 49.7309 0.238527C50.3536 -0.118439 50.797 -0.0328956 51.3806 0.282946C59.7723 4.82317 68.1717 9.35075 76.5786 13.8657C77.7995 14.5237 79.014 15.1949 80.2528 15.8217C80.7647 16.0799 80.9832 16.3908 80.9832 17.0027C80.9636 28.4767 80.9718 39.9506 80.949 51.4245C80.949 51.77 80.7712 52.2766 80.512 52.4395C77.1475 54.527 73.7602 56.5718 70.3223 58.6658ZM24.0668 49.2728C24.5281 49.0787 24.8656 48.9439 25.1932 48.7991C32.4618 45.4318 39.701 42.0102 47.0136 38.7366C48.6029 38.026 49.3283 37.2199 49.0969 35.4351C48.9925 34.6225 48.8589 34.0993 48.1188 33.6502C40.403 28.9971 32.704 24.3208 25.0219 19.6216C24.7432 19.4571 24.4514 19.3091 24.0716 19.1018L24.0668 49.2728ZM52.0099 31.6466L77.1377 16.3185L52.0099 3.30806V31.6466ZM25.3383 16.8415L49.0561 31.2617V3.37384L25.3383 16.8415Z" fill="#EABC67"/>
<path d="M68.5944 7.47987C71.0119 7.31537 73.4259 7.07355 75.8466 6.98637C80.551 6.82187 85.2408 7.01593 89.8654 8.00952C92.9153 8.66752 95.8756 9.59698 98.5164 11.3292C103.907 14.8626 105.426 20.4359 102.629 26.279C101.367 28.911 99.6232 31.1959 97.5498 33.3377L94.5519 30.0263C95.737 28.2579 97.1015 26.4073 98.2621 24.4332C99.0772 23.0531 99.4847 21.4821 99.2402 19.8272C98.8767 17.4321 97.284 16.0257 95.3377 14.9137C92.7442 13.4331 89.9095 12.6238 86.9803 12.3244C83.6255 11.9822 80.2431 11.9098 76.8737 11.6795C76.2446 11.6493 75.6275 11.4945 75.0577 11.2239C72.8733 10.102 70.7249 8.90602 68.5634 7.73642L68.5944 7.47987Z" fill="#EABC67"/>
<path d="M38.1083 62.1122C40.4573 60.8834 42.3466 61.8506 44.2358 63.1584C45.7241 64.1898 47.3232 65.0567 49.0527 66.1063C49.0527 64.3083 49.1083 62.7126 49.0333 61.1235C48.9893 60.1842 49.1963 59.6578 50.2167 59.5575C50.8688 59.4933 51.5207 59.2482 52.2983 59.0525V66.2494C52.7873 65.9747 53.0922 65.8085 53.3938 65.6341C56.522 63.8082 59.6679 62.0151 62.7651 60.1332C63.5117 59.6809 64.0692 59.6397 64.7604 60.1497C65.207 60.4869 65.727 60.7205 66.3155 61.0577C65.9764 61.288 65.7662 61.4443 65.5445 61.5792C61.0341 64.3297 56.5284 67.0867 52 69.8042C51.6951 69.9868 51.1279 70.0757 50.8589 69.9128C46.6728 67.4141 42.5161 64.8659 38.3529 62.326C38.2644 62.2633 38.1825 62.1917 38.1083 62.1122Z" fill="#EABC67"/>
<path d="M63.9698 12.8787L54.4484 14.8132C54.4484 13.285 54.4484 11.8605 54.4484 10.4359C54.4484 10.2895 54.5461 10.0345 54.6358 10.0164C55.578 9.82727 56.6832 9.28276 57.4477 9.58873C59.6271 10.4606 61.6616 11.6828 63.9698 12.8787Z" fill="#EABC67"/>
<path d="M47.0689 11.9641V16.807C44.2489 17.8154 41.3522 18.6379 38.6446 19.8815C36.3625 20.931 34.4358 21.0331 32.509 19.3009C31.9711 18.8189 31.2717 18.5178 30.4795 18.0309C35.8687 15.6366 41.4109 13.6098 47.0689 11.9641Z" fill="#EABC67"/>
</g>
<defs>
<clipPath id="clip0_1164_408">
<rect width="104" height="70" fill="white"/>
</clipPath>
</defs>
</svg>
